<svg width="18" height="14" viewBox="0 0 18 14" fill="none" xmlns="http://www.w3.org/2000/svg">
<path fill-rule="evenodd" clip-rule="evenodd" d="M0.309979 2.42977C0.343313 2.48977 0.433313 2.5731 0.579979 2.67977C1.99331 3.4931 3.25998 4.21977 4.37998 4.85977C4.85998 5.13977 5.32665 5.40977 5.77998 5.66977C6.23331 5.92977 6.63998 6.15977 6.99998 6.35977C7.35998 6.55977 7.65331 6.71977 7.87998 6.83977L8.19998 7.03977C8.59998 7.2931 8.87331 7.41977 9.01998 7.41977C9.08665 7.41977 9.21331 7.37643 9.39998 7.28977C9.58665 7.2031 9.73998 7.12643 9.85998 7.05977L17.46 2.67977C17.62 2.5331 17.7133 2.43977 17.74 2.39977C17.7666 2.35977 17.78 2.27977 17.78 2.15977V1.75977C17.78 1.4531 17.7 1.2131 17.54 1.03977C17.38 0.866432 17.0933 0.779766 16.68 0.779766L1.33998 0.759766C0.953313 0.759766 0.676646 0.856432 0.509979 1.04977C0.343313 1.2431 0.259979 1.4931 0.259979 1.79977V2.15977C0.259979 2.27977 0.276646 2.36977 0.309979 2.42977ZM17.58 4.02017C17.4467 3.9935 17.2667 4.0535 17.04 4.20017C16.92 4.26684 16.7033 4.40017 16.39 4.60017C16.0767 4.80017 15.75 5.00684 15.41 5.22017C15.07 5.4335 14.7633 5.63017 14.49 5.81017C14.2167 5.99017 14.0667 6.08684 14.04 6.10017C13.8933 6.1935 13.8233 6.2935 13.83 6.40017C13.8367 6.50684 13.8933 6.66684 14 6.88017C14.0533 6.9735 14.1267 7.13017 14.22 7.35017C14.3133 7.57017 14.4067 7.80017 14.5 8.04017L14.76 8.68017C14.84 8.88017 14.8933 9.00017 14.92 9.04017C14.9733 9.1335 14.99 9.22017 14.97 9.30017C14.95 9.38017 14.91 9.4435 14.85 9.49017C14.79 9.53684 14.72 9.55684 14.64 9.55017C14.56 9.5435 14.4867 9.50017 14.42 9.42017C14.3533 9.34017 14.2433 9.20017 14.09 9.00017C13.9367 8.80017 13.77 8.59017 13.59 8.37017C13.41 8.15017 13.2433 7.95017 13.09 7.77017C12.9367 7.59017 12.84 7.48017 12.8 7.44017C12.6933 7.3335 12.5867 7.26684 12.48 7.24017C12.3733 7.2135 12.2533 7.24017 12.12 7.32017C12.04 7.3735 11.89 7.46684 11.67 7.60017C11.45 7.7335 11.2167 7.87684 10.97 8.03017C10.7233 8.1835 10.4933 8.3235 10.28 8.45017C10.0667 8.57684 9.92666 8.66017 9.85999 8.70017C9.79332 8.74017 9.69666 8.78017 9.56999 8.82017C9.44332 8.86017 9.30666 8.89017 9.15999 8.91017C9.01332 8.93017 8.85666 8.92684 8.68999 8.90017C8.52332 8.8735 8.35999 8.80684 8.19999 8.70017C8.03999 8.60684 7.85332 8.4935 7.63999 8.36017L6.99999 7.92017C6.78666 7.78684 6.58666 7.66017 6.39999 7.54017C6.21332 7.42017 6.07999 7.34017 5.99999 7.30017C5.87999 7.22017 5.75332 7.22017 5.61999 7.30017C5.48666 7.38017 5.38666 7.4535 5.31999 7.52017C5.26666 7.5735 5.15666 7.6935 4.98999 7.88017C4.82332 8.06684 4.64666 8.2635 4.45999 8.47017C4.27332 8.67684 4.10332 8.87017 3.94999 9.05017C3.79666 9.23017 3.69999 9.34017 3.65999 9.38017C3.59332 9.46017 3.52332 9.50684 3.44999 9.52017C3.37666 9.5335 3.31666 9.5235 3.26999 9.49017C3.22332 9.45684 3.18999 9.40684 3.16999 9.34017C3.14999 9.2735 3.16666 9.1935 3.21999 9.10017C3.27332 9.00684 3.34999 8.85684 3.44999 8.65017C3.54999 8.4435 3.65666 8.22684 3.76999 8.00017C3.88332 7.7735 3.98999 7.5535 4.08999 7.34017C4.18999 7.12684 4.26666 6.9735 4.31999 6.88017C4.38666 6.76017 4.42332 6.6435 4.42999 6.53017C4.43666 6.41684 4.35999 6.30684 4.19999 6.20017C4.13332 6.16017 3.93999 6.04017 3.61999 5.84017C3.29999 5.64017 2.94999 5.4235 2.56999 5.19017C2.18999 4.95684 1.83666 4.73684 1.50999 4.53017C1.18332 4.3235 0.97999 4.1935 0.89999 4.14017C0.713324 4.00684 0.556657 3.9735 0.42999 4.04017C0.303324 4.10684 0.23999 4.26684 0.23999 4.52017V11.2402C0.23999 11.4935 0.273324 11.7435 0.33999 11.9902C0.406657 12.2368 0.51999 12.4535 0.67999 12.6402C0.83999 12.8268 1.05999 12.9802 1.33999 13.1002C1.61999 13.2202 1.98666 13.2802 2.43999 13.2802H15.8C16.08 13.2802 16.34 13.2635 16.58 13.2302C16.82 13.1968 17.03 13.1135 17.21 12.9802C17.39 12.8468 17.53 12.6502 17.63 12.3902C17.73 12.1302 17.78 11.7735 17.78 11.3202V4.34017C17.78 4.1535 17.7133 4.04684 17.58 4.02017Z" fill="#fff"/>
</svg>
