<svg width="106" height="12" viewBox="0 0 106 12" fill="none" xmlns="http://www.w3.org/2000/svg">
<path fill-rule="evenodd" clip-rule="evenodd" d="M51.8835 11.1357C51.2072 11.7119 50.1274 12 48.6439 12C48.3058 12 47.9731 11.9888 47.6458 11.9664C47.3186 11.9441 47.0077 11.9105 46.7132 11.8657C46.4187 11.821 46.1515 11.7762 45.9115 11.7315C45.6715 11.6867 45.4697 11.6364 45.3061 11.5804V9.61678C45.4806 9.68392 45.6933 9.74545 45.9442 9.8014C46.1951 9.85734 46.4651 9.90769 46.7541 9.95245C47.0432 9.9972 47.3432 10.0336 47.654 10.0615C47.9649 10.0895 48.273 10.1035 48.5785 10.1035C49.3638 10.1035 49.9256 9.98881 50.2637 9.75944C50.6019 9.53007 50.7709 9.11888 50.7709 8.52587C50.7709 8.25734 50.7409 8.03077 50.6809 7.84615C50.621 7.66154 50.5091 7.4993 50.3455 7.35944C50.1819 7.21958 49.9556 7.0965 49.6665 6.99021C49.3775 6.88392 48.9984 6.76923 48.5294 6.64615C47.9295 6.5007 47.4304 6.34406 47.0323 6.17622C46.6341 6.00839 46.3124 5.7986 46.0669 5.54685C45.8215 5.2951 45.647 4.99301 45.5434 4.64056C45.4397 4.28811 45.3879 3.85455 45.3879 3.33986C45.3879 2.15385 45.7288 1.3007 46.4105 0.78042C47.0923 0.26014 48.0931 0 49.4129 0C50.0238 0 50.5855 0.041958 51.0982 0.125874C51.6108 0.20979 52.0144 0.307692 52.3089 0.41958V2.28252C52.1562 2.22657 51.9708 2.17343 51.7526 2.12308C51.5345 2.07273 51.2972 2.02517 51.0409 1.98042C50.7846 1.93566 50.5201 1.9021 50.2474 1.87972C49.9747 1.85734 49.7183 1.84615 49.4784 1.84615C48.7912 1.84615 48.2867 1.94126 47.9649 2.13147C47.6431 2.32168 47.4822 2.70769 47.4822 3.28951C47.4822 3.51329 47.504 3.7007 47.5477 3.85175C47.5913 4.0028 47.6868 4.13706 47.834 4.25455C47.9813 4.37203 48.1912 4.48112 48.4639 4.58182C48.7366 4.68252 49.0966 4.78881 49.5438 4.9007C50.2092 5.06853 50.7573 5.24755 51.1882 5.43776C51.619 5.62797 51.9599 5.86294 52.2108 6.14266C52.4616 6.42238 52.6389 6.75804 52.7425 7.14965C52.8461 7.54126 52.898 8.01119 52.898 8.55944C52.898 9.7007 52.5598 10.5594 51.8835 11.1357ZM2.19429 2.41299V12H0V0.244898H3.63429L5.96571 7.18955H6.06857L8.46857 0.244898H12V12H9.78857V2.41299H9.68571L7.13143 9.62865H4.83429L2.29714 2.41299H2.19429ZM21.7959 10.0521V12H14.449V0.244898H21.4877V2.17585H16.6924V5.02147H21.1451V6.86773H16.6924V10.0521H21.7959ZM28.4029 12V2.19279H31.5918V0.244898H23.0204V2.19279H26.1925V12H28.4029ZM35.802 8.88337L34.6608 12H32.3265L36.8222 0.244898H39.8654L44.3265 12H41.9231L40.8164 8.88337H35.802ZM39.6735 6.85714H36.2449L37.8783 2.20408H38.0724L39.6735 6.85714ZM62.449 12V10.0521H57.3455V6.86773H61.7982V5.02147H57.3455V2.17585H62.1407V0.244898H55.102V12H62.449ZM71.6973 11.8571C71.1982 11.9524 70.656 12 70.0708 12C69.2102 12 68.4328 11.916 67.7386 11.7479C67.0444 11.5798 66.4506 11.2745 65.9572 10.8319C65.4638 10.3894 65.0823 9.77871 64.8126 9C64.543 8.22129 64.4082 7.22129 64.4082 6C64.4082 4.87955 64.543 3.93557 64.8126 3.16807C65.0823 2.40056 65.4638 1.78151 65.9572 1.31092C66.4506 0.840336 67.0473 0.504202 67.7472 0.302521C68.4472 0.10084 69.2332 0 70.1052 0C70.679 0 71.1867 0.0308123 71.6285 0.092437C72.0702 0.154062 72.4747 0.246499 72.8419 0.369748V2.30252C72.4747 2.17927 72.0788 2.08123 71.6543 2.0084C71.2297 1.93557 70.7593 1.89916 70.2429 1.89916C69.6577 1.89916 69.15 1.96639 68.7197 2.10084C68.2894 2.23529 67.9337 2.46218 67.6526 2.78151C67.3714 3.10084 67.162 3.52101 67.0243 4.04202C66.8867 4.56303 66.8178 5.21008 66.8178 5.98319C66.8178 6.80112 66.8838 7.47339 67.0157 8C67.1477 8.52661 67.3514 8.94398 67.6268 9.2521C67.9021 9.56022 68.2492 9.77311 68.6681 9.89076C69.0869 10.0084 69.5832 10.0672 70.1569 10.0672C70.6847 10.0672 71.1724 10.0308 71.6199 9.95798C72.0674 9.88515 72.5206 9.77031 72.9796 9.61345V11.5126C72.6239 11.6471 72.1965 11.7619 71.6973 11.8571ZM79.4524 12C81.0046 12 82.1914 11.6847 83.0128 11.054C83.8342 10.4233 84.2449 9.38636 84.2449 7.94318V0H82.0356V7.63636C82.0356 8.04545 81.9988 8.40341 81.9251 8.71023C81.8515 9.01705 81.7184 9.27273 81.5257 9.47727C81.3331 9.68182 81.0697 9.83239 80.7355 9.92898C80.4013 10.0256 79.9792 10.0739 79.4694 10.0739C78.9709 10.0739 78.5602 10.0256 78.2373 9.92898C77.9144 9.83239 77.6538 9.6875 77.4555 9.49432C77.2572 9.30114 77.1185 9.05114 77.0391 8.74432C76.9598 8.4375 76.9202 8.06818 76.9202 7.63636V0H74.6939V7.94318C74.6939 8.70455 74.7987 9.34375 75.0083 9.8608C75.2179 10.3778 75.5238 10.7955 75.926 11.1136C76.3282 11.4318 76.8239 11.6591 77.413 11.7955C78.0022 11.9318 78.682 12 79.4524 12ZM89.7118 7.56219V12H87.4286V0.244898H91.1932C92.0066 0.244898 92.7095 0.309828 93.3021 0.439687C93.8947 0.569547 94.3769 0.778451 94.7487 1.0664C95.1205 1.35435 95.3965 1.72981 95.5766 2.19279C95.7567 2.65577 95.8467 3.22037 95.8467 3.88661C95.8467 4.88032 95.6579 5.64536 95.2803 6.18173C94.9027 6.71811 94.313 7.09357 93.5112 7.30812L96.9796 12H94.2955L91.2804 7.56219H89.7118ZM90.9912 5.87755H89.8775V2.20408H90.9912C91.4566 2.20408 91.85 2.22846 92.1714 2.27723C92.4927 2.32599 92.7559 2.41539 92.9609 2.54542C93.1659 2.67546 93.3155 2.85425 93.4097 3.08181C93.5039 3.30937 93.551 3.60737 93.551 3.9758C93.551 4.37674 93.5039 4.70182 93.4097 4.95106C93.3155 5.20029 93.1659 5.39263 92.9609 5.52808C92.7559 5.66354 92.4927 5.75564 92.1714 5.80441C91.85 5.85317 91.4566 5.87755 90.9912 5.87755ZM105.551 10.0521V12H98.2041V0.244898H105.243V2.17585H100.448V5.02147H104.9V6.86773H100.448V10.0521H105.551Z" fill="#182D43"/>
</svg>
