<svg width="202" height="24" viewBox="0 0 202 24" fill="none" xmlns="http://www.w3.org/2000/svg">
<path fill-rule="evenodd" clip-rule="evenodd" d="M98.9957 22.1783C97.6595 23.2827 95.5259 23.835 92.5948 23.835C91.9267 23.835 91.2694 23.8135 90.6228 23.7706C89.9763 23.7277 89.3621 23.6634 88.7802 23.5776C88.1983 23.4918 87.6703 23.4061 87.1961 23.3203C86.722 23.2345 86.3233 23.138 86 23.0308V19.2671C86.3448 19.3958 86.7651 19.5138 87.2608 19.621C87.7565 19.7282 88.2899 19.8247 88.861 19.9105C89.4321 19.9963 90.0248 20.066 90.639 20.1196C91.2532 20.1732 91.8621 20.2 92.4655 20.2C94.0172 20.2 95.1272 19.9802 95.7953 19.5406C96.4634 19.1009 96.7974 18.3128 96.7974 17.1762C96.7974 16.6615 96.7381 16.2273 96.6196 15.8734C96.5011 15.5196 96.2802 15.2086 95.9569 14.9406C95.6336 14.6725 95.1864 14.4366 94.6153 14.2329C94.0442 14.0291 93.2953 13.8093 92.3685 13.5734C91.1832 13.2946 90.1972 12.9944 89.4106 12.6727C88.6239 12.351 87.9881 11.9489 87.5032 11.4664C87.0183 10.9839 86.6735 10.4049 86.4688 9.72937C86.264 9.05384 86.1616 8.22284 86.1616 7.23636C86.1616 4.96317 86.8351 3.32797 88.1821 2.33077C89.5291 1.33356 91.5065 0.834961 94.1142 0.834961C95.3211 0.834961 96.431 0.915381 97.444 1.07622C98.4569 1.23706 99.2543 1.4247 99.8362 1.63916V5.20979C99.5345 5.10256 99.1681 5.0007 98.7371 4.90419C98.306 4.80769 97.8373 4.71655 97.3308 4.63077C96.8244 4.54498 96.3017 4.48065 95.7629 4.43776C95.2241 4.39487 94.7177 4.37342 94.2435 4.37342C92.8858 4.37342 91.889 4.55571 91.2532 4.92028C90.6175 5.28484 90.2996 6.0247 90.2996 7.13986C90.2996 7.56876 90.3427 7.92797 90.4289 8.21748C90.5151 8.50699 90.7037 8.76433 90.9946 8.98951C91.2856 9.21468 91.7004 9.42377 92.2392 9.61678C92.778 9.80979 93.4892 10.0135 94.3728 10.228C95.6875 10.5496 96.7705 10.8928 97.6218 11.2573C98.4731 11.6219 99.1466 12.0723 99.6422 12.6084C100.138 13.1445 100.488 13.7879 100.693 14.5385C100.898 15.289 101 16.1897 101 17.2406C101 19.428 100.332 21.0739 98.9957 22.1783ZM4.20571 5.8926V23.835H0V1.83496H6.96571L11.4343 14.8321H11.6314L16.2314 1.83496H23V23.835H18.7614V5.8926H18.5643L13.6686 19.3969H9.26571L4.40286 5.8926H4.20571ZM42 20.1894V23.835H28V1.83496H41.4126V5.44879H32.2751V10.7744H40.7599V14.2298H32.2751V20.1894H42ZM54.6752 23.835V5.48049H61V1.83496H44V5.48049H50.2913V23.835H54.6752ZM68.6614 18.0021L66.4741 23.835H62L70.6167 1.83496H76.4496L85 23.835H80.3934L78.2723 18.0021H68.6614ZM76 13.835H69L72.3349 4.83496H72.7311L76 13.835ZM120 23.835V20.1894H110.275V14.2298H118.76V10.7744H110.275V5.44879H119.413V1.83496H106V23.835H120ZM137.606 23.5612C136.675 23.7437 135.663 23.835 134.57 23.835C132.964 23.835 131.513 23.6739 130.217 23.3518C128.921 23.0296 127.813 22.4444 126.892 21.5962C125.971 20.7479 125.258 19.5775 124.755 18.085C124.252 16.5924 124 14.6758 124 12.335C124 10.1874 124.252 8.37814 124.755 6.90709C125.258 5.43603 125.971 4.24953 126.892 3.34757C127.813 2.44561 128.926 1.80135 130.233 1.41479C131.539 1.02824 133.007 0.834961 134.635 0.834961C135.705 0.834961 136.653 0.894018 137.478 1.01213C138.303 1.13025 139.058 1.30742 139.743 1.54364V5.24813C139.058 5.0119 138.319 4.82399 137.526 4.6844C136.734 4.54481 135.855 4.47502 134.892 4.47502C133.799 4.47502 132.851 4.60387 132.048 4.86157C131.245 5.11928 130.581 5.55415 130.056 6.16619C129.531 6.77824 129.141 7.58356 128.884 8.58216C128.627 9.58076 128.498 10.821 128.498 12.3027C128.498 13.8704 128.621 15.159 128.867 16.1683C129.114 17.1776 129.494 17.9776 130.008 18.5682C130.522 19.1587 131.17 19.5668 131.952 19.7922C132.734 20.0177 133.66 20.1305 134.731 20.1305C135.716 20.1305 136.627 20.0607 137.462 19.9211C138.297 19.7815 139.143 19.5614 140 19.2607V22.9008C139.336 23.1585 138.538 23.3786 137.606 23.5612ZM152.968 23.835C155.893 23.835 158.13 23.2306 159.678 22.0218C161.226 20.8129 162 18.8255 162 16.0594V0.834961H157.836V15.4713C157.836 16.2554 157.767 16.9415 157.628 17.5296C157.489 18.1176 157.238 18.6077 156.875 18.9997C156.512 19.3918 156.016 19.6804 155.386 19.8655C154.756 20.0506 153.961 20.1432 153 20.1432C152.061 20.1432 151.286 20.0506 150.678 19.8655C150.069 19.6804 149.578 19.4027 149.205 19.0324C148.831 18.6621 148.569 18.183 148.42 17.5949C148.27 17.0068 148.196 16.299 148.196 15.4713V0.834961H144V16.0594C144 17.5187 144.198 18.7438 144.593 19.7348C144.988 20.7258 145.564 21.5262 146.322 22.1361C147.08 22.7459 148.014 23.1816 149.125 23.4429C150.235 23.7043 151.516 23.835 152.968 23.835ZM171.303 15.5295V23.835H167V1.83496H174.095C175.628 1.83496 176.953 1.95648 178.069 2.19951C179.186 2.44255 180.095 2.83352 180.796 3.37243C181.496 3.91133 182.016 4.61402 182.356 5.48049C182.695 6.34697 182.865 7.40364 182.865 8.65052C182.865 10.5103 182.509 11.9421 181.797 12.9459C181.086 13.9498 179.974 14.6524 178.464 15.054L185 23.835H179.942L174.259 15.5295H171.303ZM174.122 11.835H172V4.83496H174.122C175.009 4.83496 175.759 4.88142 176.371 4.97434C176.983 5.06726 177.485 5.23762 177.876 5.4854C178.266 5.73319 178.551 6.0739 178.731 6.50753C178.91 6.94116 179 7.509 179 8.21107C179 8.97508 178.91 9.59455 178.731 10.0695C178.551 10.5444 178.266 10.9109 177.876 11.169C177.485 11.4271 176.983 11.6027 176.371 11.6956C175.759 11.7885 175.009 11.835 174.122 11.835ZM202 20.1894V23.835H188V1.83496H201.413V5.44879H192.275V10.7744H200.76V14.2298H192.275V20.1894H202Z" fill="white"/>
</svg>
