<svg width="16" height="14" viewBox="0 0 16 14" fill="none" xmlns="http://www.w3.org/2000/svg">
<path d="M16 1.87492C15.4002 2.14162 14.7638 2.31691 14.112 2.39492C14.7965 1.98443 15.3083 1.33896 15.552 0.578918C14.9066 0.9624 14.2004 1.23295 13.464 1.37892C12.5408 0.401959 11.115 0.0871236 9.86629 0.584499C8.61756 1.08187 7.79867 2.29078 7.8 3.63492C7.8011 3.88545 7.83062 4.13504 7.888 4.37892C5.24603 4.24472 2.78556 2.99413 1.12 0.938918C0.827054 1.43876 0.672427 2.00756 0.672 2.58692C0.642477 3.67367 1.16673 4.70108 2.064 5.31492C1.52 5.29892 0.504 5.15492 0.504 4.90692V4.94692C0.545646 6.51485 1.669 7.84426 3.208 8.14692C2.94756 8.21996 2.67848 8.25763 2.408 8.25892C2.20666 8.25965 2.00572 8.2409 1.808 8.20292C2.24104 9.54024 3.47458 10.4558 4.88 10.4829C3.71925 11.4036 2.28158 11.9054 0.8 11.9069C0.532626 11.9065 0.265503 11.8905 0 11.8589C1.50136 12.8222 3.24818 13.3332 5.032 13.3309C7.51881 13.3567 9.91175 12.3824 11.6733 10.6269C13.4348 8.87139 14.4173 6.4818 14.4 3.99492V3.57092C15.0287 3.10388 15.5703 2.52978 16 1.87492Z" fill="#3E4055"/>
</svg>
