<svg width="13" height="11" viewBox="0 0 13 11" fill="none" xmlns="http://www.w3.org/2000/svg">
<path fill-rule="evenodd" clip-rule="evenodd" d="M12.1667 2H0.833344C0.388935 2 0 1.53328 0 1C0 0.466716 0.388904 0 0.833344 0H12.1667C12.6111 0 13 0.466716 13 1C13 1.53328 12.6111 2 12.1667 2ZM12.1667 5H0.833344C0.388904 5 0 5.46672 0 6C0 6.53328 0.388935 7 0.833344 7H12.1667C12.6111 7 13 6.53328 13 6C13 5.46672 12.6111 5 12.1667 5ZM12.1667 9H0.833344C0.388904 9 0 9.46672 0 10C0 10.5333 0.388935 11 0.833344 11H12.1667C12.6111 11 13 10.5333 13 10C13 9.46672 12.6111 9 12.1667 9Z" fill="black"/>
</svg>
